<svg width="616" height="96" viewBox="0 0 616 96" fill="none" xmlns="http://www.w3.org/2000/svg">
<g filter="url(#filter0_ddd_1_67)">
<path d="M605 75L596 84L587 75L578 84L569 75L560 84L551 75L542 84L533 75L524 84L515 75L506 84L497 75L488 84L479 75L470 84L461 75L452 84L443 75L434 84L425 75L416 84L407 75L398 84L389 75L380 84L371 75L362 84L353 75L344 84L335 75L326 84L317 75L308 84L299 75L290 84L281 75L272 84L263 75L254 84L245 75L236 84L227 75L218 84L209 75L200 84L191 75L182 84L173 75L164 84L155 75L146 84L137 75L128 84L119 75L110 84L101 75L92 84L83 75L74 84L65 75L56 84L47 75L38 84L29 75L20 84L11 75L8 78V4H608V78L605 75Z" fill="#F9FAFF"/>
</g>
<defs>
<filter id="filter0_ddd_1_67" x="0" y="0" width="616" height="96" filterUnits="userSpaceOnUse" color-interpolation-filters="sRGB">
<feFlood flood-opacity="0" result="BackgroundImageFix"/>
<feColorMatrix in="SourceAlpha" type="matrix" values="0 0 0 0 0 0 0 0 0 0 0 0 0 0 0 0 0 0 127 0" result="hardAlpha"/>
<feOffset/>
<feGaussianBlur stdDeviation="0.5"/>
<feColorMatrix type="matrix" values="0 0 0 0 0 0 0 0 0 0 0 0 0 0 0 0 0 0 0.06 0"/>
<feBlend mode="normal" in2="BackgroundImageFix" result="effect1_dropShadow_1_67"/>
<feColorMatrix in="SourceAlpha" type="matrix" values="0 0 0 0 0 0 0 0 0 0 0 0 0 0 0 0 0 0 127 0" result="hardAlpha"/>
<feOffset/>
<feGaussianBlur stdDeviation="1"/>
<feColorMatrix type="matrix" values="0 0 0 0 0 0 0 0 0 0 0 0 0 0 0 0 0 0 0.06 0"/>
<feBlend mode="normal" in2="effect1_dropShadow_1_67" result="effect2_dropShadow_1_67"/>
<feColorMatrix in="SourceAlpha" type="matrix" values="0 0 0 0 0 0 0 0 0 0 0 0 0 0 0 0 0 0 127 0" result="hardAlpha"/>
<feOffset dy="4"/>
<feGaussianBlur stdDeviation="4"/>
<feColorMatrix type="matrix" values="0 0 0 0 0 0 0 0 0 0 0 0 0 0 0 0 0 0 0.06 0"/>
<feBlend mode="normal" in2="effect2_dropShadow_1_67" result="effect3_dropShadow_1_67"/>
<feBlend mode="normal" in="SourceGraphic" in2="effect3_dropShadow_1_67" result="shape"/>
</filter>
</defs>
</svg>
